<?xml version="1.0" standalone="no"?><!DOCTYPE svg PUBLIC "-//W3C//DTD SVG 1.1//EN" "http://www.w3.org/Graphics/SVG/1.1/DTD/svg11.dtd"><svg t="1720075148510" class="icon" viewBox="0 0 1024 1024" version="1.1" xmlns="http://www.w3.org/2000/svg" p-id="3369" xmlns:xlink="http://www.w3.org/1999/xlink" width="200" height="200"><path d="M815.53 371.28l-222.9 130.85c-13.51 7.93-30.89 3.41-38.83-10.1-7.93-13.51-3.41-30.89 10.1-38.83l222.9-130.85c13.51-7.93 30.89-3.41 38.83 10.1 7.93 13.52 3.41 30.9-10.1 38.83z" fill="#7CA7EA" p-id="3370"></path><path d="M709.77 314.32l-33.33 128.12c-3.94 15.16-19.43 24.26-34.6 20.31-15.16-3.94-24.26-19.43-20.31-34.6l33.33-128.12c3.95-15.16 19.43-24.26 34.6-20.31 15.16 3.95 24.25 19.44 20.31 34.6z" fill="#7CA7EA" p-id="3371"></path><path d="M656.5 408.49l128.12 33.33c15.16 3.95 24.26 19.43 20.31 34.6-3.95 15.16-19.43 24.26-34.6 20.31L642.21 463.4c-15.16-3.94-24.26-19.43-20.31-34.6 3.95-15.17 19.44-24.26 34.6-20.31zM541.9 178.78l1.88 258.46c0.11 15.67-12.49 28.46-28.16 28.57-15.67 0.11-28.46-12.49-28.57-28.16l-1.88-258.46c-0.11-15.67 12.49-28.46 28.16-28.57 15.66-0.12 28.45 12.49 28.57 28.16z" fill="#7CA7EA" p-id="3372"></path><path d="M439.69 241.89l94.29 92.93c11.16 11 11.29 28.96 0.29 40.12-11 11.16-28.96 11.29-40.12 0.29l-94.29-92.93c-11.16-11-11.29-28.96-0.29-40.12 11-11.16 28.96-11.29 40.12-0.29z" fill="#7CA7EA" p-id="3373"></path><path d="M494.6 335.1l92.93-94.29c11-11.16 28.96-11.29 40.12-0.29 11.16 11 11.29 28.96 0.29 40.12l-92.93 94.29c-11 11.16-28.96 11.29-40.12 0.29-11.15-11-11.28-28.96-0.29-40.12zM238.37 319.5l224.77 127.6c13.62 7.73 18.4 25.05 10.66 38.67-7.73 13.62-25.05 18.4-38.67 10.66l-224.77-127.6c-13.62-7.73-18.4-25.05-10.66-38.67 7.73-13.62 25.05-18.4 38.67-10.66z" fill="#7CA7EA" p-id="3374"></path><path d="M241.92 439.57l127.62-35.19c15.1-4.16 30.72 4.7 34.89 19.81 4.16 15.1-4.7 30.72-19.81 34.89L257 494.26c-15.1 4.16-30.72-4.7-34.89-19.81-4.16-15.1 4.71-30.72 19.81-34.88z" fill="#7CA7EA" p-id="3375"></path><path d="M350.11 438.62L314.91 311c-4.16-15.1 4.7-30.72 19.81-34.89 15.1-4.16 30.72 4.7 34.89 19.81l35.19 127.62c4.16 15.1-4.7 30.72-19.81 34.89-15.1 4.16-30.72-4.71-34.88-19.81z" fill="#7CA7EA" p-id="3376"></path><path d="M208.47 652.72l222.89-130.85c13.51-7.93 30.89-3.41 38.83 10.1 7.93 13.51 3.41 30.89-10.1 38.83L237.2 701.65c-13.51 7.93-30.89 3.41-38.83-10.1-7.93-13.52-3.41-30.9 10.1-38.83z" fill="#7CA7EA" p-id="3377"></path><path d="M314.23 709.68l33.33-128.12c3.95-15.16 19.43-24.26 34.6-20.31 15.16 3.95 24.26 19.43 20.31 34.6l-33.33 128.12c-3.94 15.16-19.43 24.26-34.6 20.31-15.16-3.95-24.25-19.44-20.31-34.6z" fill="#7CA7EA" p-id="3378"></path><path d="M367.5 615.51l-128.12-33.33c-15.16-3.95-24.26-19.43-20.31-34.6 3.94-15.16 19.43-24.26 34.6-20.31l128.12 33.33c15.16 3.95 24.26 19.43 20.31 34.6-3.95 15.17-19.44 24.26-34.6 20.31z" fill="#7CA7EA" p-id="3379"></path><path d="M482.1 845.22l-1.88-258.46c-0.11-15.67 12.49-28.46 28.16-28.57 15.67-0.11 28.46 12.49 28.57 28.16l1.88 258.46c0.11 15.67-12.49 28.46-28.16 28.57-15.66 0.12-28.45-12.49-28.57-28.16z" fill="#7CA7EA" p-id="3380"></path><path d="M584.31 782.11l-94.29-92.93c-11.16-11-11.29-28.96-0.29-40.12 11-11.16 28.96-11.29 40.12-0.29l94.29 92.93c11.16 11 11.29 28.96 0.29 40.12-11 11.16-28.96 11.29-40.12 0.29z" fill="#7CA7EA" p-id="3381"></path><path d="M529.4 688.9l-92.93 94.29c-11 11.16-28.96 11.29-40.12 0.29-11.16-11-11.29-28.96-0.29-40.12l92.93-94.29c11-11.16 28.96-11.29 40.12-0.29 11.15 11 11.29 28.96 0.29 40.12z" fill="#7CA7EA" p-id="3382"></path><path d="M785.63 704.5L560.86 576.9c-13.62-7.73-18.4-25.05-10.66-38.67 7.73-13.62 25.05-18.4 38.67-10.66l224.77 127.6c13.62 7.73 18.4 25.05 10.66 38.67-7.73 13.62-25.05 18.4-38.67 10.66z" fill="#7CA7EA" p-id="3383"></path><path d="M782.08 584.43l-127.62 35.19c-15.1 4.16-30.72-4.7-34.89-19.81-4.16-15.1 4.7-30.72 19.81-34.89L767 529.74c15.1-4.16 30.72 4.7 34.89 19.81 4.16 15.1-4.71 30.72-19.81 34.88z" fill="#7CA7EA" p-id="3384"></path><path d="M673.89 585.38L709.09 713c4.16 15.1-4.7 30.72-19.81 34.89-15.1 4.16-30.72-4.7-34.89-19.81L619.2 600.46c-4.16-15.1 4.7-30.72 19.81-34.89 15.1-4.16 30.72 4.71 34.88 19.81z" fill="#7CA7EA" p-id="3385"></path><path d="M594.63 368.55l-6.39 94.05a5.882 5.882 0 0 0 3.71 5.86l87.72 34.51c4.75 1.87 5.01 8.48 0.43 10.73l-84.64 41.49a5.866 5.866 0 0 0-3.22 6.14l13.97 93.22c0.76 5.04-4.84 8.59-9.07 5.74l-78.25-52.56a5.872 5.872 0 0 0-6.93 0.28l-73.75 58.71c-3.99 3.18-9.86 0.1-9.51-4.99l6.39-94.05a5.882 5.882 0 0 0-3.71-5.86l-87.72-34.51c-4.75-1.87-5.01-8.48-0.43-10.73l84.64-41.49c2.3-1.13 3.6-3.61 3.22-6.14l-13.97-93.22c-0.76-5.04 4.84-8.59 9.07-5.74l78.25 52.56a5.872 5.872 0 0 0 6.93-0.28l73.75-58.71c3.99-3.17 9.86-0.09 9.51 4.99z" fill="#7CA7EA" p-id="3386"></path></svg>