<?xml version="1.0" standalone="no"?><!DOCTYPE svg PUBLIC "-//W3C//DTD SVG 1.1//EN" "http://www.w3.org/Graphics/SVG/1.1/DTD/svg11.dtd"><svg t="1720075126656" class="icon" viewBox="0 0 1024 1024" version="1.1" xmlns="http://www.w3.org/2000/svg" p-id="3020" xmlns:xlink="http://www.w3.org/1999/xlink" width="200" height="200"><path d="M892.63 386.26c0-111.18-90.13-201.3-201.3-201.3-72.9 0-136.75 38.75-172.07 96.78-30.94-27.57-71.72-44.33-116.42-44.33-65.75 0-123.03 36.25-152.96 89.86-66.45 6.01-118.52 61.86-118.52 129.88 0 72.03 58.39 130.42 130.42 130.42h456.48c37.56 0 71.4-15.88 95.2-41.29 48.12-36.79 79.17-94.78 79.17-160.02z" fill="#EFF3F8" p-id="3021"></path><path d="M307.38 676.69L260.1 813.77c-6.75 19.58-28.1 29.98-47.68 23.22-19.58-6.75-29.98-28.1-23.22-47.68l47.28-137.08c6.75-19.58 28.1-29.98 47.68-23.22 19.58 6.75 29.97 28.1 23.22 47.68zM472.62 676.69l-47.28 137.08c-6.75 19.58-28.1 29.98-47.68 23.22-19.58-6.75-29.98-28.1-23.22-47.68l47.28-137.08c6.75-19.58 28.1-29.98 47.68-23.22 19.57 6.75 29.97 28.1 23.22 47.68zM637.85 676.69l-47.28 137.08c-6.75 19.58-28.1 29.98-47.68 23.22-19.58-6.75-29.98-28.1-23.22-47.68l47.28-137.08c6.75-19.58 28.1-29.98 47.68-23.22 19.58 6.75 29.98 28.1 23.22 47.68zM803.09 676.69l-47.28 137.08c-6.75 19.58-28.1 29.98-47.68 23.22-19.58-6.75-29.98-28.1-23.22-47.68l47.28-137.08c6.75-19.58 28.1-29.98 47.68-23.22 19.57 6.75 29.97 28.1 23.22 47.68z" fill="#7CA7EA" p-id="3022"></path></svg>